Simulation
nRows=45
nColumns=15
endheader
time  TH_x TH_y TH_z SC_y  SC_z  SC_x  AC_y  AC_z  AC_x  GH_y  GH_z  GH_yy  EL_x  PS_y
1.55  0.000000  0.000000  0.000000  -34.682268027600315  6.192423034638877  80.3926236303118  47.46803177497072  -36.936244566563  -41.17834616121949  21.04453853367428  54.8406702784631  -20.04990615327864  17.955683634249684  0.000000
1.581  0.000000  0.000000  0.000000  -35.07138689367215  6.5358377949339355  80.73431654210724  47.64193040830552  -36.612065152690576  -40.62385937682253  20.951785576846202  55.32774317748227  -20.12924847149208  17.925806222224264  0.000000
1.612  0.000000  0.000000  0.000000  -35.42534280996701  6.823192734444608  80.98720931385816  47.82407705586834  -36.34161956757345  -40.078311069841234  20.82353484469162  55.777561812175534  -20.154768224559596  17.89563893510405  0.000000
1.643  0.000000  0.000000  0.000000  -35.740031260881786  7.041285065921563  81.13508278502192  48.02731457182176  -36.10113481306828  -39.549559382932244  20.67308265530855  56.17651657013188  -20.156407358559594  17.879316728690302  0.000000
1.674  0.000000  0.000000  0.000000  -36.02164512247938  7.199350385627145  81.18854795211165  48.24582250289319  -35.86990797034998  -39.048679498648305  20.536570684646026  56.49296342230133  -20.16043649579695  17.88377347628817  0.000000
1.705  0.000000  0.000000  0.000000  -36.27824571270235  7.314739399464539  81.18706839103424  48.45584910608764  -35.64868977483729  -38.601767835379725  20.452200473890525  56.69258671512364  -20.175484606429922  17.90561125276187  0.000000
1.736  0.000000  0.000000  0.000000  -36.50970378824961  7.399700387836429  81.15577005564408  48.63463793553833  -35.443552698844506  -38.23479255607213  20.445026226486934  56.756161585996345  -20.199523266678554  17.93621597918766  0.000000
1.767  0.000000  0.000000  0.000000  -36.70346344154274  7.455789433984075  81.10355937398228  48.763274072048596  -35.2712773027171  -37.97600907792222  20.520089184028816  56.688038599259855  -20.227844647764652  17.967211523928395  0.000000
1.798  0.000000  0.000000  0.000000  -36.83488380642601  7.477628177333222  81.02927524378232  48.825640775365116  -35.15455678584599  -37.85623434413735  20.665699589009115  56.508546913120554  -20.257918949566402  17.992761805237688  0.000000
1.829  0.000000  0.000000  0.000000  -36.87855787368568  7.458960788112789  80.92836115357457  48.811362637273106  -35.1111078758767  -37.8976116438557  20.86556287241798  56.23740971138024  -20.294495175190463  18.01038708442234  0.000000
1.8599999999999999  0.000000  0.000000  0.000000  -36.82043981375346  7.393582512478914  80.80441989081713  48.720170833090805  -35.1530315369754  -38.1064217557982  21.105763553053034  55.88166861999479  -20.357685879485384  18.022747849067944  0.000000
1.891  0.000000  0.000000  0.000000  -36.65988775500861  7.275142007978023  80.66949035809075  48.56361842240854  -35.28594586813255  -38.470546390689684  21.373654329269336  55.432326758377464  -20.47979131759286  18.034414447455948  0.000000
1.922  0.000000  0.000000  0.000000  -36.408469437573125  7.0972284562916785  80.52956948761188  48.363532935554574  -35.510402758131995  -38.960698989104  21.654330666728818  54.8766875212312  -20.69100763151251  18.049219251126317  0.000000
1.953  0.000000  0.000000  0.000000  -36.089302000229345  6.8527912761743375  80.38144927235338  48.14297448009479  -35.826619887810736  -39.5427615301126  21.93280846692449  54.20881773513863  -20.996748170540748  18.068176106145494  0.000000
1.984  0.000000  0.000000  0.000000  -35.72959590772751  6.541438118753785  80.19993150587459  47.91822555255036  -36.221358989686  -40.1803266031373  22.199424174037638  53.43193167694592  -21.364767960690987  18.09273376401078  0.000000
2.015  0.000000  0.000000  0.000000  -35.35439554892153  6.175982897555904  79.93873141790307  47.698152365965115  -36.663422736670825  -40.82811934146257  22.45512570107657  52.55750263706331  -21.739091462926645  18.127521493154166  0.000000
2.046  0.000000  0.000000  0.000000  -34.98206150820917  5.775508302510378  79.58149236568056  47.47721402233556  -37.13681122655199  -41.459006687116826  22.70417597190792  51.59891242558169  -22.06770924838566  18.179551922859428  0.000000
2.077  0.000000  0.000000  0.000000  -34.62152118228243  5.353305884455627  79.14054539299616  47.244429881638624  -37.63536682789777  -42.06637159907222  22.94792551458722  50.566804427905915  -22.32194536269563  18.252984190560788  0.000000
2.108  0.000000  0.000000  0.000000  -34.275814889554255  4.91389489716027  78.62709273411964  46.998003528492966  -38.14495020333163  -42.64499503945677  23.186639603593147  49.47170268241712  -22.501058824438314  18.345903048086086  0.000000
2.139  0.000000  0.000000  0.000000  -33.947706154047545  4.458653935799226  78.0512805648843  46.74157534403201  -38.650733490403276  -43.19029064801181  23.42017332104419  48.32479318916936  -22.61961662111069  18.45418315529987  0.000000
2.17  0.000000  0.000000  0.000000  -33.6407364598843  3.9899139936662573  77.42020964500136  46.47808443063385  -39.14029260906653  -43.69885697118837  23.647326133541053  47.13733366576426  -22.693068981732992  18.572259121117582  0.000000
2.201  0.000000  0.000000  0.000000  -33.35627554361398  3.512994430626646  76.73455416962578  46.20550372237944  -39.60233519526539  -44.1698935413695  23.865245490795285  45.9207030934821  -22.73079542600272  18.694944696530857  0.000000
2.232  0.000000  0.000000  0.000000  -33.09189135205588  3.0326638337474128  75.99331096386749  45.91975712293764  -40.027364735352265  -44.60546275486214  24.069151080366368  44.685093837438764  -22.73598609341672  18.818034187050706  0.000000
2.263  0.000000  0.000000  0.000000  -32.8443813441475  2.5527097588703733  75.19873394226853  45.617278921924076  -40.40757576035861  -45.008712468077015  24.255227090086183  43.437684835894856  -22.70713807788412  18.937426633515642  0.000000
2.294  0.000000  0.000000  0.000000  -32.61281319655759  2.0773468317216883  74.35950537154517  45.29872929018067  -40.73829325802002  -45.382426084191295  24.422850381959897  42.18135439731895  -22.640483309999624  19.048923193853415  0.000000
2.325  0.000000  0.000000  0.000000  -32.39697293579778  1.60764133375211  73.49100936041913  44.96841991332703  -41.0173604657901  -45.73082101646093  24.573922268188607  40.915820813792834  -22.53100842477556  19.147862865877403  0.000000
2.356  0.000000  0.000000  0.000000  -32.19694784095421  1.1450647018672293  72.61134304735327  44.63037062867086  -41.24738122696528  -46.059299539076775  24.711903906175067  39.638621182084265  -22.375382322486978  19.230663908567493  0.000000
2.387  0.000000  0.000000  0.000000  -32.013707229723146  0.6946711036826144  71.73795990690185  44.2834610658601  -41.43565993413726  -46.37400483637084  24.840595195279846  38.34447330183053  -22.17214755456701  19.297060347265976  0.000000
2.418  0.000000  0.000000  0.000000  -31.846987835561208  0.2642719590433425  70.8844353677882  43.92165527106161  -41.59164001818135  -46.68098144094447  24.96236246530287  37.02580224579483  -21.923644138504162  19.35029565822277  0.000000
2.449  0.000000  0.000000  0.000000  -31.69454983725184  -0.13723042493205787  70.06056296777146  43.53714857893579  -41.722711127366416  -46.9859157055808  25.080079111925116  35.67299915902283  -21.63433112371807  19.39559791796137  0.000000
2.48  0.000000  0.000000  0.000000  -31.55284631574644  -0.5046901784559373  69.2751588408969  43.127197278779036  -41.833747848617996  -47.29312517730395  25.19727077886379  34.276341573868265  -21.313376673488325  19.437824804828903  0.000000
2.511  0.000000  0.000000  0.000000  -31.421052910368616  -0.8386336674892771  68.53783500347218  42.69716395954041  -41.92832233144597  -47.604109425531924  25.31901730885486  32.82840559767509  -20.975571979429333  19.479950467473497  0.000000
2.542  0.000000  0.000000  0.000000  -31.30182379804795  -1.1433452788497642  67.85908173274643  42.25972287516456  -42.0125525886232  -47.917404538273125  25.450364058536803  31.325771213869285  -20.641019805937745  19.523135187349368  0.000000
2.573  0.000000  0.000000  0.000000  -31.19870153671043  -1.423628448668846  67.24890538674545  41.827177690942975  -42.09366984875205  -48.23028347884955  25.595316592901654  29.76808518696474  -20.327701825336774  19.566475196235157  0.000000
2.604  0.000000  0.000000  0.000000  -31.111510526526043  -1.6789006851505714  66.71331287996895  41.4045453551913  -42.17922667881854  -48.54032158916208  25.756200401060475  28.157414822986073  -20.045337795770944  19.60864486969573  0.000000
2.635  0.000000  0.000000  0.000000  -31.035405951946995  -1.9017325849798683  66.253985476092  40.98730823542067  -42.27414109771818  -48.84705421895758  25.93528884580888  26.496751410352292  -19.7904424537657  19.64873288335768  0.000000
2.666  0.000000  0.000000  0.000000  -30.961832726634224  -2.082303904853152  65.8688471236715  40.56606355035295  -42.38052932941277  -49.15221577438805  26.133965929477096  24.79128352979693  -19.551111813479856  19.68764447046187  0.000000
2.697  0.000000  0.000000  0.000000  -30.884393248547248  -2.21538361468211  65.55401892710475  40.133108173629914  -42.497635191479446  -49.459790316576075  26.353609781594013  23.05103052099246  -19.31195118603969  19.7278438937547  0.000000
2.7279999999999998  0.000000  0.000000  0.000000  -30.8016924931798  -2.3044040356893336  65.30456803353557  39.68635394180988  -42.623731581701705  -49.7757662636719  26.59373743464641  21.292743989342245  -19.06022675004694  19.774428146811246  0.000000
2.759  0.000000  0.000000  0.000000  -30.71814021449618  -2.3592796111257632  65.11551502170346  39.22835205224586  -42.756163586397  -50.10647019039451  26.852929262898147  19.537029158765186  -18.78700870922753  19.831970794103643  0.000000
2.79  0.000000  0.000000  0.000000  -30.637949819827377  -2.3902912794738587  64.98362787905214  38.76299139105467  -42.89175117133323  -50.45859440221612  27.127783870996414  17.80054296206318  -18.487896467265188  19.90632898938152  0.000000
2.821  0.000000  0.000000  0.000000  -30.561195758966914  -2.4035055971875887  64.91006625022017  38.29321770733007  -43.02614023547158  -50.83872926967278  27.415062199662433  16.08902094569026  -18.161058166607067  20.000334017486313  0.000000
2.852  0.000000  0.000000  0.000000  -30.482276482755086  -2.398526719075366  64.90223185089388  37.8189242041418  -43.15367850893794  -51.25399056736313  27.71224650365813  14.395092603982404  -17.806507808801285  20.118512076931193  0.000000
2.883  0.000000  0.000000  0.000000  -30.392588620241124  -2.3707041519596066  64.9699585261776  37.34288479173966  -43.26975679166939  -51.711108581195035  28.023176966580518  12.7070728660823  -17.422317323490024  20.26545599723477  0.000000
2.914  0.000000  0.000000  0.000000  -30.289508982872555  -2.3194210570518496  65.11996881176073  36.869035280774625  -43.36648435977782  -52.213591307736735  28.35255748850597  11.015582481050881  -17.009975471148042  20.44239978341374  0.000000
